<?xml version="1.0" encoding="utf-8"?>
<!-- Generator: Adobe Illustrator 18.1.1, SVG Export Plug-In . SVG Version: 6.00 Build 0)  -->
<!DOCTYPE svg PUBLIC "-//W3C//DTD SVG 1.1//EN" "http://www.w3.org/Graphics/SVG/1.1/DTD/svg11.dtd">
<svg version="1.1" xmlns="http://www.w3.org/2000/svg" xmlns:xlink="http://www.w3.org/1999/xlink" x="0px" y="0px"
	 viewBox="0 273.8 735.3 244.8" enable-background="new 0 273.8 735.3 244.8" xml:space="preserve">
<g id="Layer_1" display="none">
	<rect y="396.2" display="inline" fill="#FFCC00" width="122.4" height="122.4"/>
	<rect x="-122.4" y="273.8" display="inline" fill="none" stroke="#FFCC00" stroke-miterlimit="10" width="857.8" height="122.4"/>
	<rect x="122.4" y="396.2" display="inline" fill="#FFCC00" width="122.4" height="122.4"/>
	<rect x="244.8" y="396.2" display="inline" fill="#FFCC00" width="122.4" height="122.4"/>
	<rect x="367.2" y="396.2" display="inline" fill="#FFCC00" width="122.4" height="122.4"/>
	<rect x="489.6" y="396.2" display="inline" fill="#FFCC00" width="122.4" height="122.4"/>
	<rect x="613" y="396.2" display="inline" fill="#FFCC00" width="122.4" height="122.4"/>
	<rect x="-232.7" y="273.4" display="inline" fill="#FFCC00" width="1078.4" height="22.9"/>
	<rect x="-232.7" y="373.6" display="inline" fill="#FFCC00" width="1078.4" height="22.9"/>
</g>
<g id="Layer_2_1_">
	<g>
		<path fill="#C9CDCF" d="M61.9,308.7L70,325c0.1,0.2,0.3,0.4,0.6,0.4l18,2.6c0.7,0.1,0.9,0.9,0.4,1.4l-13,12.7
			c-0.2,0.2-0.3,0.5-0.2,0.7l3.1,17.9c0.1,0.7-0.6,1.2-1.2,0.9l-16.1-8.5c-0.2-0.1-0.5-0.1-0.8,0l-16.1,8.5
			c-0.6,0.3-1.3-0.2-1.2-0.9l3.1-17.9c0-0.3,0-0.5-0.2-0.7l-13-12.7c-0.5-0.5-0.2-1.3,0.4-1.4l18-2.6c0.3,0,0.5-0.2,0.6-0.4
			l8.1-16.3C60.8,308.1,61.6,308.1,61.9,308.7z"/>
		<path fill="#C9CDCF" d="M572.1,335c0-1.4-0.1-2.8-0.4-4.2c-0.1-0.3,0.1-0.6,0.3-0.8l1.1-0.8c2.1-1.5,2.7-4.3,1.4-6.5l-1.2-2
			c-1.3-2.2-4-3.1-6.4-2.1l-1.3,0.6c-0.3,0.1-0.6,0.1-0.9-0.1c-2.1-1.8-4.5-3.3-7.2-4.2c-0.3-0.1-0.5-0.4-0.6-0.7l-0.1-1.4
			c-0.3-2.5-2.4-4.5-5-4.5h-2.3c-2.6,0-4.7,1.9-5,4.5l-0.1,1.4c0,0.3-0.3,0.6-0.6,0.7c-2.7,0.9-5.1,2.3-7.2,4.2
			c-0.2,0.2-0.6,0.3-0.9,0.1l-1.3-0.6c-2.3-1-5.1-0.1-6.4,2.1l-1.2,2c-1.3,2.2-0.7,5,1.4,6.5l1.1,0.8c0.3,0.2,0.4,0.5,0.3,0.8
			c-0.3,1.4-0.4,2.7-0.4,4.2s0.1,2.8,0.4,4.2c0.1,0.3-0.1,0.6-0.3,0.8l-1.1,0.8c-2.1,1.5-2.7,4.3-1.4,6.5l1.2,2
			c1.3,2.2,4,3.1,6.4,2.1l1.3-0.6c0.3-0.1,0.6-0.1,0.9,0.1c2.1,1.8,4.5,3.3,7.2,4.2c0.3,0.1,0.5,0.4,0.6,0.7l0.1,1.4
			c0.3,2.5,2.4,4.5,5,4.5h2.3c2.6,0,4.7-1.9,5-4.5l0.1-1.4c0-0.3,0.3-0.6,0.6-0.7c2.7-0.9,5.1-2.3,7.2-4.2c0.2-0.2,0.6-0.3,0.9-0.1
			l1.3,0.6c2.3,1,5.1,0.1,6.4-2.1l1.2-2c1.3-2.2,0.7-5-1.4-6.5L572,340c-0.3-0.2-0.4-0.5-0.3-0.8C572,337.8,572.1,336.4,572.1,335z
			 M562.8,335c0,6.7-5.4,12-12,12s-12-5.4-12-12c0-6.7,5.4-12,12-12S562.8,328.3,562.8,335z"/>
		<g>
			<path fill="#C9CDCF" d="M193.9,322.7l-9.6-14.2c-0.3-0.5-1-0.5-1.4,0l-9.6,14.2c-0.4,0.5,0,1.3,0.7,1.3h5.6
				c0.5,0,0.8,0.4,0.8,0.8v22.6c0,0.5,0.4,0.8,0.8,0.8h4.7c0.5,0,0.8-0.4,0.8-0.8v-22.6c0-0.5,0.4-0.8,0.8-0.8h5.6
				C193.8,324,194.2,323.3,193.9,322.7z"/>
			<path fill="#C9CDCF" d="M176,329.7v21.8c0,0.5,0.4,0.8,0.8,0.8h13.6c0.5,0,0.8-0.4,0.8-0.8v-21.8c0-0.5,0.4-0.8,0.8-0.8h9.2
				c0.5,0,0.8,0.4,0.8,0.8v31.3c0,0.5-0.4,0.8-0.8,0.8h-35.4c-0.5,0-0.8-0.4-0.8-0.8v-31.3c0-0.5,0.4-0.8,0.8-0.8h9.2
				C175.6,328.9,176,329.2,176,329.7z"/>
		</g>
		<path fill="#C9CDCF" d="M428.4,308.2c-9.9,0-18,8.1-18,18c0,14.3,14.2,31.6,17.4,35.3c0.3,0.4,0.9,0.4,1.2,0
			c3.2-3.7,17.4-21,17.4-35.3C446.4,316.3,438.3,308.2,428.4,308.2z M428.4,334.5c-5,0-9.1-4.1-9.1-9.1s4.1-9.1,9.1-9.1
			s9.1,4.1,9.1,9.1S433.4,334.5,428.4,334.5z"/>
		<g>
			<path fill="#C9CDCF" d="M297,351.7c0,2,0.6,3.5,1.8,4.4c1,0.8,2.5,1.3,4.4,1.4c0.4,0,0.8,0.4,0.8,0.8v2.6c0,0.5-0.4,0.8-0.9,0.8
				c-3.4-0.2-6-1-8-2.6c-2.1-1.7-3.1-4.1-3.1-7.2v-9.1c0-2.1-0.6-3.6-1.9-4.5c-1.1-0.8-2.7-1.2-4.7-1.3c-0.4,0-0.8-0.4-0.8-0.8v-2.6
				c0-0.4,0.3-0.8,0.8-0.8c2.2-0.1,3.8-0.6,4.9-1.4c1.2-0.9,1.7-2.3,1.7-4.3V318c0-3.1,1.1-5.5,3.2-7.2c2-1.6,4.6-2.4,7.8-2.6
				c0.5,0,0.9,0.4,0.9,0.8v2.6c0,0.4-0.3,0.8-0.8,0.8c-4.1,0.3-6.1,2.3-6.1,5.9v8.9c0,4.3-2.2,6.8-6.7,7.6v0.4
				c4.5,0.8,6.7,3.3,6.7,7.6L297,351.7L297,351.7z"/>
			<path fill="#C9CDCF" d="M321.7,334.8c-4.5-0.8-6.7-3.3-6.7-7.6v-8.9c0-3.6-2-5.6-6.1-5.9c-0.4,0-0.8-0.4-0.8-0.8V309
				c0-0.5,0.4-0.8,0.9-0.8c3.3,0.1,5.9,1,7.8,2.6c2.1,1.7,3.2,4.1,3.2,7.2v9.2c0,1.9,0.6,3.4,1.8,4.3c1.1,0.8,2.7,1.3,4.9,1.4
				c0.4,0,0.8,0.4,0.8,0.8v2.6c0,0.4-0.3,0.8-0.8,0.8c-2.1,0.1-3.6,0.5-4.8,1.3c-1.3,0.9-1.9,2.4-1.9,4.5v9.1c0,3.1-1,5.4-3.1,7.2
				c-1.9,1.6-4.5,2.4-7.9,2.6c-0.5,0-0.9-0.3-0.9-0.8v-2.6c0-0.4,0.3-0.8,0.8-0.8c1.8-0.1,3.3-0.6,4.3-1.4c1.2-0.9,1.7-2.4,1.7-4.4
				v-8.9c0-2.3,0.6-4,1.7-5.2c1.1-1.2,2.8-2,5-2.4V334.8z"/>
		</g>
		<path fill="#C9CDCF" d="M691.6,332.5h-14.1c-0.5,0-0.8-0.4-0.8-0.8v-14.1c0-0.5-0.4-0.8-0.8-0.8h-3.4c-0.5,0-0.8,0.4-0.8,0.8v14.1
			c0,0.5-0.4,0.8-0.8,0.8h-14.1c-0.5,0-0.8,0.4-0.8,0.8v3.4c0,0.5,0.4,0.8,0.8,0.8h14.1c0.5,0,0.8,0.4,0.8,0.8v14.1
			c0,0.5,0.4,0.8,0.8,0.8h3.4c0.5,0,0.8-0.4,0.8-0.8v-14.1c0-0.5,0.4-0.8,0.8-0.8h14.1c0.5,0,0.8-0.4,0.8-0.8v-3.4
			C692.4,332.9,692.1,332.5,691.6,332.5z"/>
	</g>
	<g>
		<path fill="#FFC328" d="M572.1,457.4c0-1.4-0.1-2.8-0.4-4.2c-0.1-0.3,0.1-0.6,0.3-0.8l1.1-0.8c2.1-1.5,2.7-4.3,1.4-6.5l-1.2-2
			c-1.3-2.2-4-3.1-6.4-2.1l-1.3,0.6c-0.3,0.1-0.6,0.1-0.9-0.1c-2.1-1.8-4.5-3.3-7.2-4.2c-0.3-0.1-0.5-0.4-0.6-0.7l-0.1-1.4
			c-0.3-2.5-2.4-4.5-5-4.5h-2.3c-2.6,0-4.7,1.9-5,4.5l-0.1,1.4c0,0.3-0.3,0.6-0.6,0.7c-2.7,0.9-5.1,2.3-7.2,4.2
			c-0.2,0.2-0.6,0.3-0.9,0.1l-1.3-0.6c-2.3-1-5.1-0.1-6.4,2.1l-1.2,2c-1.3,2.2-0.7,5,1.4,6.5l1.1,0.8c0.3,0.2,0.4,0.5,0.3,0.8
			c-0.3,1.4-0.4,2.7-0.4,4.2s0.1,2.8,0.4,4.2c0.1,0.3-0.1,0.6-0.3,0.8l-1.1,0.8c-2.1,1.5-2.7,4.3-1.4,6.5l1.2,2
			c1.3,2.2,4,3.1,6.4,2.1l1.3-0.6c0.3-0.1,0.6-0.1,0.9,0.1c2.1,1.8,4.5,3.3,7.2,4.2c0.3,0.1,0.5,0.4,0.6,0.7l0.1,1.4
			c0.3,2.5,2.4,4.5,5,4.5h2.3c2.6,0,4.7-1.9,5-4.5l0.1-1.4c0-0.3,0.3-0.6,0.6-0.7c2.7-0.9,5.1-2.3,7.2-4.2c0.2-0.2,0.6-0.3,0.9-0.1
			l1.3,0.6c2.3,1,5.1,0.1,6.4-2.1l1.2-2c1.3-2.2,0.7-5-1.4-6.5l-1.1-0.8c-0.3-0.2-0.4-0.5-0.3-0.8
			C572,460.2,572.1,458.8,572.1,457.4z M562.8,457.4c0,6.7-5.4,12-12,12s-12-5.4-12-12s5.4-12,12-12S562.8,450.7,562.8,457.4z"/>
		<path fill="#FFC328" d="M61.9,431.1l8.1,16.3c0.1,0.2,0.3,0.4,0.6,0.4l18,2.6c0.7,0.1,0.9,0.9,0.4,1.4l-13,12.7
			c-0.2,0.2-0.3,0.5-0.2,0.7l3.1,17.9c0.1,0.7-0.6,1.2-1.2,0.9l-16.1-8.5c-0.2-0.1-0.5-0.1-0.8,0l-16.1,8.5
			c-0.6,0.3-1.3-0.2-1.2-0.9l3.1-17.9c0-0.3,0-0.5-0.2-0.7l-13-12.7c-0.5-0.5-0.2-1.3,0.4-1.4l18-2.6c0.3,0,0.5-0.2,0.6-0.4
			l8.1-16.3C60.8,430.5,61.6,430.5,61.9,431.1z"/>
		<g>
			<path fill="#FFC328" d="M193.9,445.1l-9.6-14.2c-0.3-0.5-1-0.5-1.4,0l-9.6,14.2c-0.4,0.5,0,1.3,0.7,1.3h5.6
				c0.5,0,0.8,0.4,0.8,0.8v22.6c0,0.5,0.4,0.8,0.8,0.8h4.7c0.5,0,0.8-0.4,0.8-0.8v-22.6c0-0.5,0.4-0.8,0.8-0.8h5.6
				C193.8,446.4,194.2,445.7,193.9,445.1z"/>
			<path fill="#FFC328" d="M176,452.1v21.8c0,0.5,0.4,0.8,0.8,0.8h13.6c0.5,0,0.8-0.4,0.8-0.8v-21.8c0-0.5,0.4-0.8,0.8-0.8h9.2
				c0.5,0,0.8,0.4,0.8,0.8v31.3c0,0.5-0.4,0.8-0.8,0.8h-35.4c-0.5,0-0.8-0.4-0.8-0.8v-31.3c0-0.5,0.4-0.8,0.8-0.8h9.2
				C175.6,451.3,176,451.6,176,452.1z"/>
		</g>
		<path fill="#FFC328" d="M428.4,430.6c-9.9,0-18,8.1-18,18c0,14.3,14.2,31.6,17.4,35.3c0.3,0.4,0.9,0.4,1.2,0
			c3.2-3.7,17.4-21,17.4-35.3C446.4,438.7,438.3,430.6,428.4,430.6z M428.4,456.9c-5,0-9.1-4.1-9.1-9.1s4.1-9.1,9.1-9.1
			s9.1,4.1,9.1,9.1C437.5,452.8,433.4,456.9,428.4,456.9z"/>
		<g>
			<path fill="#FFC328" d="M297,474.1c0,2,0.6,3.5,1.8,4.4c1,0.8,2.5,1.3,4.4,1.4c0.4,0,0.8,0.4,0.8,0.8v2.6c0,0.5-0.4,0.8-0.9,0.8
				c-3.4-0.2-6-1-8-2.6c-2.1-1.7-3.1-4.1-3.1-7.2v-9.1c0-2.1-0.6-3.6-1.9-4.5c-1.1-0.8-2.7-1.2-4.7-1.3c-0.4,0-0.8-0.4-0.8-0.8v-2.6
				c0-0.4,0.3-0.8,0.8-0.8c2.2-0.1,3.8-0.6,4.9-1.4c1.2-0.9,1.7-2.3,1.7-4.3v-9.2c0-3.1,1.1-5.5,3.2-7.2c2-1.6,4.6-2.4,7.8-2.6
				c0.5,0,0.9,0.4,0.9,0.8v2.6c0,0.4-0.3,0.8-0.8,0.8c-4.1,0.3-6.1,2.3-6.1,5.9v8.9c0,4.3-2.2,6.8-6.7,7.6v0.4
				c4.5,0.8,6.7,3.3,6.7,7.6L297,474.1L297,474.1z"/>
			<path fill="#FFC328" d="M321.7,457.2c-4.5-0.8-6.7-3.3-6.7-7.6v-8.9c0-3.6-2-5.6-6.1-5.9c-0.4,0-0.8-0.4-0.8-0.8v-2.6
				c0-0.5,0.4-0.8,0.9-0.8c3.3,0.1,5.9,1,7.8,2.6c2.1,1.7,3.2,4.1,3.2,7.2v9.2c0,1.9,0.6,3.4,1.8,4.3c1.1,0.8,2.7,1.3,4.9,1.4
				c0.4,0,0.8,0.4,0.8,0.8v2.6c0,0.4-0.3,0.8-0.8,0.8c-2.1,0.1-3.6,0.5-4.8,1.3c-1.3,0.9-1.9,2.4-1.9,4.5v9.1c0,3.1-1,5.4-3.1,7.2
				c-1.9,1.6-4.5,2.4-7.9,2.6c-0.5,0-0.9-0.3-0.9-0.8v-2.6c0-0.4,0.3-0.8,0.8-0.8c1.8-0.1,3.3-0.6,4.3-1.4c1.2-0.9,1.7-2.4,1.7-4.4
				v-8.9c0-2.3,0.6-4,1.7-5.2c1.1-1.2,2.8-2,5-2.4V457.2z"/>
		</g>
		<path fill="#FFC328" d="M691.6,454.9h-14.1c-0.5,0-0.8-0.4-0.8-0.8V440c0-0.5-0.4-0.8-0.8-0.8h-3.4c-0.5,0-0.8,0.4-0.8,0.8v14.1
			c0,0.5-0.4,0.8-0.8,0.8h-14.1c-0.5,0-0.8,0.4-0.8,0.8v3.4c0,0.5,0.4,0.8,0.8,0.8h14.1c0.5,0,0.8,0.4,0.8,0.8v14.1
			c0,0.5,0.4,0.8,0.8,0.8h3.4c0.5,0,0.8-0.4,0.8-0.8v-14.1c0-0.5,0.4-0.8,0.8-0.8h14.1c0.5,0,0.8-0.4,0.8-0.8v-3.4
			C692.4,455.3,692.1,454.9,691.6,454.9z"/>
	</g>
</g>
</svg>
